<?xml version="1.0" encoding="utf-8"?>
<!-- Generator: Adobe Illustrator 16.0.4, SVG Export Plug-In . SVG Version: 6.00 Build 0)  -->
<!DOCTYPE svg PUBLIC "-//W3C//DTD SVG 1.1//EN" "http://www.w3.org/Graphics/SVG/1.1/DTD/svg11.dtd">
<svg version="1.1" id="Layer_1" xmlns="http://www.w3.org/2000/svg" xmlns:xlink="http://www.w3.org/1999/xlink" x="0px" y="0px"
	 width="657.948px" height="81.104px" viewBox="0 0 657.948 81.104" enable-background="new 0 0 657.948 81.104"
	 xml:space="preserve">
<path display="none" fill="none" stroke="#231F20" stroke-width="14" stroke-miterlimit="10" d="M517.125,191.145
	c0,1.657-1.343,3-3,3h-531.18c-1.657,0-3-1.343-3-3v-300.411c0-1.657,1.343-3,3-3h531.18c1.657,0,3,1.343,3,3V191.145z"/>
<g>
	<path fill="#2F2930" d="M2.026,79.994c-0.816,0-1.519-0.295-2.111-0.889c-0.594-0.593-0.889-1.296-0.889-2.111V5.221
		c0-0.814,0.295-1.518,0.889-2.111C0.507,2.518,1.21,2.221,2.026,2.221h8.999c0.814,0,1.518,0.297,2.111,0.889
		c0.592,0.594,0.889,1.297,0.889,2.111v71.772c0,0.815-0.297,1.519-0.889,2.111c-0.593,0.594-1.296,0.889-2.111,0.889H2.026z"/>
	<path fill="#2F2930" d="M94.684,55.329c0.147-0.962,0.536-1.684,1.166-2.167c0.629-0.48,1.314-0.722,2.056-0.722h8.999
		c0.814,0,1.537,0.278,2.167,0.833c0.628,0.557,0.906,1.278,0.833,2.167c-0.222,3.038-0.982,6.074-2.277,9.11
		c-1.297,3.038-3.277,5.777-5.943,8.222c-2.667,2.444-6.039,4.444-10.111,6c-4.074,1.555-8.999,2.332-14.776,2.332
		c-5.11,0-9.63-0.76-13.555-2.277c-3.927-1.517-7.26-3.628-9.999-6.332c-2.741-2.703-4.871-5.944-6.389-9.723
		c-1.52-3.776-2.427-7.888-2.722-12.331c-0.149-2.814-0.223-5.926-0.223-9.334c0-3.405,0.073-6.516,0.223-9.332
		c0.295-4.443,1.202-8.555,2.722-12.332c1.518-3.777,3.647-7.018,6.389-9.722c2.739-2.703,6.072-4.813,9.999-6.333
		c3.925-1.517,8.444-2.278,13.555-2.278c5.777,0,10.702,0.778,14.776,2.334C95.645,5,99.017,7,101.684,9.443
		c2.666,2.445,4.646,5.205,5.943,8.277c1.295,3.074,2.056,6.094,2.277,9.055c0.073,0.889-0.205,1.611-0.833,2.167
		c-0.63,0.556-1.353,0.833-2.167,0.833h-8.999c-0.741,0-1.444-0.239-2.11-0.723c-0.667-0.48-1.075-1.202-1.223-2.166
		c-0.223-1.48-0.741-2.925-1.555-4.333c-0.816-1.405-1.928-2.667-3.334-3.777c-1.408-1.111-3.186-2.017-5.332-2.722
		c-2.15-0.703-4.667-1.056-7.556-1.056s-5.407,0.444-7.556,1.333s-3.943,2.075-5.388,3.555c-1.444,1.483-2.556,3.261-3.333,5.334
		c-0.777,2.074-1.241,4.26-1.389,6.555c-0.149,2.816-0.223,5.927-0.223,9.332c0,3.408,0.073,6.52,0.223,9.334
		c0.147,2.371,0.611,4.574,1.389,6.609c0.777,2.039,1.889,3.797,3.333,5.278c1.444,1.482,3.239,2.666,5.388,3.555
		s4.667,1.334,7.556,1.334s5.405-0.352,7.556-1.057c2.146-0.702,3.943-1.61,5.388-2.721c1.444-1.111,2.573-2.37,3.389-3.778
		C93.943,58.255,94.461,56.812,94.684,55.329z"/>
	<path fill="#2F2930" d="M190.231,66.106c0.814,0,1.518,0.297,2.111,0.889c0.592,0.594,0.889,1.297,0.889,2.111v7.888
		c0,0.815-0.297,1.519-0.889,2.111c-0.594,0.594-1.297,0.889-2.111,0.889h-48.773c-0.816,0-1.52-0.295-2.111-0.889
		c-0.594-0.593-0.889-1.296-0.889-2.111V5.221c0-0.814,0.295-1.518,0.889-2.111c0.592-0.592,1.295-0.889,2.111-0.889h47.885
		c0.814,0,1.518,0.297,2.111,0.889c0.592,0.594,0.889,1.297,0.889,2.111v7.889c0,0.815-0.297,1.519-0.889,2.11
		c-0.594,0.594-1.297,0.889-2.111,0.889h-35.886v17.666h33.442c0.813,0,1.517,0.297,2.11,0.889c0.593,0.594,0.89,1.297,0.89,2.111
		v7.889c0,0.815-0.297,1.519-0.89,2.11c-0.594,0.594-1.297,0.889-2.11,0.889h-33.442v18.443H190.231z"/>
</g>
<g>
	<path fill="#2F2930" d="M272.451,54.218c0.148-0.961,0.537-1.684,1.167-2.166c0.628-0.48,1.313-0.723,2.056-0.723h8.999
		c0.813,0,1.536,0.277,2.167,0.834c0.628,0.555,0.906,1.277,0.833,2.166c-0.222,3.038-0.983,6.074-2.278,9.11
		c-1.297,3.038-3.277,5.777-5.943,8.222s-6.038,4.444-10.11,5.999c-4.075,1.556-8.999,2.333-14.776,2.333
		c-5.111,0-9.63-0.76-13.555-2.276c-3.928-1.518-7.26-3.629-10-6.334c-2.74-2.702-4.871-5.943-6.389-9.721
		c-1.519-3.778-2.426-7.889-2.721-12.333c-0.15-2.813-0.223-5.925-0.223-9.332c0-3.406,0.072-6.518,0.223-9.333
		c0.295-4.444,1.202-8.555,2.721-12.332c1.518-3.778,3.648-7.017,6.389-9.722c2.74-2.703,6.072-4.813,10-6.333
		C244.934,0.76,249.453,0,254.564,0c5.777,0,10.701,0.777,14.776,2.333c4.072,1.556,7.444,3.555,10.11,6
		c2.666,2.443,4.646,5.204,5.943,8.276c1.295,3.075,2.057,6.094,2.278,9.056c0.073,0.889-0.205,1.61-0.833,2.166
		c-0.631,0.556-1.354,0.833-2.167,0.833h-8.999c-0.742,0-1.445-0.239-2.111-0.722c-0.666-0.48-1.074-1.203-1.223-2.167
		c-0.222-1.48-0.74-2.925-1.555-4.333c-0.816-1.406-1.928-2.666-3.333-3.777c-1.408-1.111-3.186-2.018-5.333-2.723
		c-2.149-0.703-4.666-1.055-7.555-1.055s-5.408,0.444-7.556,1.333c-2.149,0.889-3.944,2.075-5.388,3.556
		c-1.445,1.482-2.557,3.26-3.334,5.332c-0.777,2.075-1.24,4.261-1.389,6.556c-0.148,2.815-0.223,5.927-0.223,9.333
		c0,3.407,0.074,6.519,0.223,9.332c0.148,2.371,0.611,4.574,1.389,6.611s1.889,3.797,3.334,5.277
		c1.443,1.482,3.238,2.666,5.388,3.556c2.147,0.889,4.667,1.332,7.556,1.332s5.405-0.35,7.555-1.055
		c2.147-0.703,3.943-1.611,5.389-2.723c1.443-1.11,2.572-2.369,3.389-3.777C271.71,57.146,272.229,55.701,272.451,54.218z"/>
	<path fill="#2F2930" d="M347.889,1.112c9.258,0,16.294,2.148,21.109,6.443c4.813,4.296,7.222,10.26,7.222,17.888
		c0,5.408-1.241,10.018-3.722,13.832c-2.483,3.816-6.13,6.648-10.944,8.5l15.332,27.442c0.223,0.443,0.334,0.852,0.334,1.222
		c0,0.667-0.241,1.241-0.723,1.722c-0.482,0.483-1.055,0.723-1.722,0.723h-9.444c-1.482,0-2.574-0.351-3.277-1.056
		c-0.705-0.703-1.205-1.351-1.5-1.944L346,49.997h-14.775v25.887c0,0.816-0.297,1.52-0.89,2.111
		c-0.593,0.594-1.296,0.889-2.11,0.889h-9c-0.815,0-1.519-0.295-2.111-0.889c-0.594-0.592-0.889-1.295-0.889-2.111V4.111
		c0-0.813,0.295-1.517,0.889-2.11c0.593-0.592,1.296-0.889,2.111-0.889H347.889z M331.224,36.109h16.109
		c4.222,0,7.592-0.74,10.11-2.223c2.517-1.48,3.777-4.295,3.777-8.443c0-4.147-1.261-6.925-3.777-8.333
		c-2.519-1.405-5.889-2.11-10.11-2.11h-16.109V36.109z"/>
	<path fill="#2F2930" d="M457.992,64.996c0.814,0,1.518,0.297,2.111,0.889c0.592,0.594,0.889,1.297,0.889,2.11v7.889
		c0,0.816-0.297,1.52-0.889,2.111c-0.594,0.594-1.297,0.889-2.111,0.889h-48.773c-0.816,0-1.52-0.295-2.111-0.889
		c-0.594-0.592-0.889-1.295-0.889-2.111V4.111c0-0.813,0.295-1.517,0.889-2.11c0.592-0.592,1.295-0.889,2.111-0.889h47.885
		c0.814,0,1.518,0.297,2.111,0.889c0.592,0.594,0.889,1.297,0.889,2.11V12c0,0.816-0.297,1.519-0.889,2.111
		c-0.594,0.594-1.297,0.889-2.111,0.889h-35.887v17.665h33.442c0.813,0,1.517,0.297,2.11,0.889c0.593,0.594,0.89,1.297,0.89,2.11
		v7.889c0,0.816-0.297,1.52-0.89,2.111c-0.594,0.594-1.297,0.889-2.11,0.889h-33.442v18.443H457.992z"/>
	<path fill="#2F2930" d="M526.875,1.112c1.184,0,2.072,0.315,2.666,0.943c0.592,0.631,1.111,1.574,1.555,2.833l27.221,70.218
		c0.072,0.223,0.111,0.482,0.111,0.777c0,0.816-0.297,1.52-0.889,2.111c-0.594,0.594-1.297,0.889-2.111,0.889h-8
		c-1.482,0-2.518-0.314-3.109-0.944c-0.594-0.628-1-1.239-1.223-1.833l-4.777-12.332h-35.109l-4.777,12.332
		c-0.223,0.594-0.629,1.205-1.223,1.833c-0.592,0.63-1.629,0.944-3.109,0.944h-8c-0.816,0-1.52-0.295-2.111-0.889
		c-0.594-0.592-0.889-1.295-0.889-2.111c0-0.295,0.037-0.555,0.111-0.777l27.221-70.218c0.443-1.259,0.961-2.202,1.555-2.833
		c0.592-0.628,1.48-0.943,2.666-0.943H526.875z M532.984,49.885l-12.221-31.664l-12.221,31.664H532.984z"/>
	<path fill="#2F2930" d="M620.533,40.775l21.109-36.664c0.295-0.37,0.795-0.962,1.5-1.777c0.703-0.814,1.795-1.222,3.277-1.222
		h7.555c0.814,0,1.518,0.297,2.111,0.889c0.592,0.594,0.889,1.297,0.889,2.11v71.772c0,0.816-0.297,1.52-0.889,2.111
		c-0.594,0.594-1.297,0.889-2.111,0.889h-8.998c-0.816,0-1.52-0.295-2.111-0.889c-0.594-0.592-0.889-1.295-0.889-2.111v-43.44
		l-14.443,24.998c-0.371,0.594-0.889,1.204-1.557,1.832c-0.666,0.631-1.518,0.945-2.555,0.945h-5.777
		c-1.037,0-1.889-0.314-2.555-0.945c-0.668-0.628-1.186-1.238-1.557-1.832l-14.443-24.998v43.44c0,0.816-0.297,1.52-0.889,2.111
		c-0.594,0.594-1.297,0.889-2.111,0.889h-8.998c-0.816,0-1.52-0.295-2.111-0.889c-0.594-0.592-0.889-1.295-0.889-2.111V4.111
		c0-0.813,0.295-1.517,0.889-2.11c0.592-0.592,1.295-0.889,2.111-0.889h7.555c1.48,0,2.572,0.407,3.277,1.222
		c0.703,0.815,1.203,1.407,1.5,1.777L620.533,40.775z"/>
</g>
</svg>
